<svg version="1.1" viewBox="0.0 0.0 2000.0 2000.0" fill="none" stroke="none" stroke-linecap="square" stroke-miterlimit="10" xmlns:xlink="http://www.w3.org/1999/xlink" xmlns="http://www.w3.org/2000/svg"><clipPath id="p.0"><path d="m0 0l2000.0 0l0 2000.0l-2000.0 0l0 -2000.0z" clip-rule="nonzero"/></clipPath><g clip-path="url(#p.0)"><path fill="#000000" d="m0 0l2000.0 0l0 2000.0l-2000.0 0z" fill-rule="evenodd"/><path fill="#000000" fill-opacity="0.0" d="m1000.02924 1758.4415c-229.67188 0.005126953 -803.8772 -1093.9619 -689.0464 -1312.7605c114.83081 -218.79852 1263.1902 -218.82411 1378.0312 -0.030700684c114.841064 218.79343 -459.313 1312.7861 -688.9849 1312.7913z" fill-rule="evenodd"/><path stroke="#ffffff" stroke-width="24.0" stroke-linejoin="round" stroke-linecap="butt" d="m1000.02924 1758.4415c-229.67188 0.005126953 -803.8772 -1093.9619 -689.0464 -1312.7605c114.83081 -218.79852 1263.1902 -218.82411 1378.0312 -0.030700684c114.841064 218.79343 -459.313 1312.7861 -688.9849 1312.7913z" fill-rule="evenodd"/><path fill="#ffffff" d="m1000.02924 1758.4415c-229.67188 0.005126953 -803.8772 -1093.9619 -689.0464 -1312.7605c114.83081 -218.79852 1263.1902 -218.82411 1378.0312 -0.030700684c114.841064 218.79343 -459.313 1312.7861 -688.9849 1312.7913z" fill-rule="evenodd"/><g mask="url(#mask-p.1)"><use xlink:href="#p.1" transform="matrix(1.0 0.0 0.0 -1.0 0.0 342.50877401574803)"/></g><defs><mask id="mask-p.1" maskUnits="userSpaceOnUse" x="900.0019257217849" y="210.24340551181103" width="232.13839999999993" height="1295.3992"><linearGradient gradientUnits="userSpaceOnUse" id="gradient-p.1" x1="900.001925724827" y1="210.24256517310667" x2="899.9972363895357" y2="1505.6426054948356"><stop offset="0%" stop-color="#ffffff" stop-opacity="0.5199999809265137"/><stop offset="100%" stop-color="#ffffff" stop-opacity="0.0"/></linearGradient><rect fill="url(#gradient-p.1)" x="900.0019257217849" y="210.24340551181103" width="232.13839999999993" height="1295.3992"/></mask></defs><g id="p.1"><path fill="#ff4141" d="m1042.6204 -1163.1338l89.52002 7.5198975l-142.61847 1287.8793l-89.51996 -7.5199966z" fill-rule="evenodd"/></g><g mask="url(#mask-p.2)"><use xlink:href="#p.2" transform="matrix(1.0 0.0 0.0 -1.0 0.0 357.5487740157483)"/></g><defs><mask id="mask-p.2" maskUnits="userSpaceOnUse" x="989.5219257217849" y="217.76340551181113" width="232.13839999999993" height="1295.3991999999998"><linearGradient gradientUnits="userSpaceOnUse" id="gradient-p.2" x1="989.5219257248269" y1="217.76256517310674" x2="989.5172363895357" y2="1513.1626054948356"><stop offset="0%" stop-color="#ffffff" stop-opacity="0.5199999809265137"/><stop offset="100%" stop-color="#ffffff" stop-opacity="0.0"/></linearGradient><rect fill="url(#gradient-p.2)" x="989.5219257217849" y="217.76340551181113" width="232.13839999999993" height="1295.3991999999998"/></mask></defs><g id="p.2"><path fill="#ffe700" d="m1132.1404 -1155.6139l89.5199 7.5200195l-142.61841 1287.8793l-89.51996 -7.5200043z" fill-rule="evenodd"/></g><g mask="url(#mask-p.3)"><use xlink:href="#p.3" transform="matrix(1.0 0.0 0.0 -1.0 0.0 372.58877401574824)"/></g><defs><mask id="mask-p.3" maskUnits="userSpaceOnUse" x="1079.0419257217848" y="225.2834055118111" width="232.13840000000005" height="1295.3992000000003"><linearGradient gradientUnits="userSpaceOnUse" id="gradient-p.3" x1="1079.041925724827" y1="225.28256517310672" x2="1079.0372363895356" y2="1520.682605494836"><stop offset="0%" stop-color="#ffffff" stop-opacity="0.5199999809265137"/><stop offset="100%" stop-color="#ffffff" stop-opacity="0.0"/></linearGradient><rect fill="url(#gradient-p.3)" x="1079.0419257217848" y="225.2834055118111" width="232.13840000000005" height="1295.3992000000003"/></mask></defs><g id="p.3"><path fill="#237bd0" d="m1221.6603 -1148.0939l89.52002 7.5200195l-142.61841 1287.8793l-89.52002 -7.5200043z" fill-rule="evenodd"/></g><g mask="url(#mask-p.4)"><use xlink:href="#p.4" transform="matrix(1.0 0.0 0.0 -1.0 0.0 387.6287740157482)"/></g><defs><mask id="mask-p.4" maskUnits="userSpaceOnUse" x="1168.5619257217847" y="232.8034055118111" width="232.13840000000027" height="1295.3991999999998"><linearGradient gradientUnits="userSpaceOnUse" id="gradient-p.4" x1="1168.561925724827" y1="232.8025651731067" x2="1168.5572363895358" y2="1528.2026054948356"><stop offset="0%" stop-color="#ffffff" stop-opacity="0.5199999809265137"/><stop offset="100%" stop-color="#ffffff" stop-opacity="0.0"/></linearGradient><rect fill="url(#gradient-p.4)" x="1168.5619257217847" y="232.8034055118111" width="232.13840000000027" height="1295.3991999999998"/></mask></defs><g id="p.4"><path fill="#e69138" d="m1311.1803 -1140.5739l89.52002 7.5200195l-142.61841 1287.8792l-89.52002 -7.519989z" fill-rule="evenodd"/></g><g mask="url(#mask-p.5)"><use xlink:href="#p.5" transform="matrix(1.0 0.0 0.0 -1.0 0.0 402.6687740157482)"/></g><defs><mask id="mask-p.5" maskUnits="userSpaceOnUse" x="1258.081925721785" y="240.3234055118111" width="232.13840000000005" height="1295.3992"><linearGradient gradientUnits="userSpaceOnUse" id="gradient-p.5" x1="1258.081925724827" y1="240.32256517310668" x2="1258.0772363895358" y2="1535.722605494836"><stop offset="0%" stop-color="#ffffff" stop-opacity="0.5199999809265137"/><stop offset="100%" stop-color="#ffffff" stop-opacity="0.0"/></linearGradient><rect fill="url(#gradient-p.5)" x="1258.081925721785" y="240.3234055118111" width="232.13840000000005" height="1295.3992"/></mask></defs><g id="p.5"><path fill="#40991b" d="m1400.7003 -1133.0538l89.52002 7.5200195l-142.61841 1287.8792l-89.52002 -7.5200043z" fill-rule="evenodd"/></g><g mask="url(#mask-p.6)"><use xlink:href="#p.6" transform="matrix(1.0 0.0 0.0 -1.0 0.0 417.7087740157482)"/></g><defs><mask id="mask-p.6" maskUnits="userSpaceOnUse" x="1347.601925721785" y="247.84340551181108" width="232.13840000000005" height="1295.3991999999998"><linearGradient gradientUnits="userSpaceOnUse" id="gradient-p.6" x1="1347.601925724827" y1="247.8425651731067" x2="1347.5972363895357" y2="1543.2426054948355"><stop offset="0%" stop-color="#ffffff" stop-opacity="0.5199999809265137"/><stop offset="100%" stop-color="#ffffff" stop-opacity="0.0"/></linearGradient><rect fill="url(#gradient-p.6)" x="1347.601925721785" y="247.84340551181108" width="232.13840000000005" height="1295.3991999999998"/></mask></defs><g id="p.6"><path fill="#c64fad" d="m1490.2203 -1125.5338l89.52002 7.5200195l-142.61841 1287.8792l-89.52002 -7.5200043z" fill-rule="evenodd"/></g><path fill="#000000" d="m678.2091 246.10516c34.18634 46.043304 187.2804 14.620728 271.0525 19.299194c83.772095 4.6784973 153.94836 2.3390198 231.58008 8.7716675c77.631714 6.4326477 167.2511 16.812347 234.20996 29.824158c66.95886 13.01181 99.59973 23.936981 167.54333 48.246704c67.9436 24.309723 191.16968 85.50961 240.11804 97.61154c48.948486 12.101929 47.024536 -2.9763794 53.572266 -25.0c6.5476074 -22.02362 14.880493 -35.713013 -14.286133 -107.14172c-29.166626 -71.428696 25.595337 -266.66843 -160.71387 -321.43045c-186.30933 -54.76203 -786.6291 -48.778217 -957.1418 -7.141732c-170.5127 41.636482 -100.12073 210.91731 -65.93439 256.96063z" fill-rule="evenodd"/><path stroke="#000000" stroke-width="1.0" stroke-linejoin="round" stroke-linecap="butt" d="m678.2091 246.10516c34.18634 46.043304 187.2804 14.620728 271.0525 19.299194c83.772095 4.6784973 153.94836 2.3390198 231.58008 8.7716675c77.631714 6.4326477 167.2511 16.812347 234.20996 29.824158c66.95886 13.01181 99.59973 23.936981 167.54333 48.246704c67.9436 24.309723 191.16968 85.50961 240.11804 97.61154c48.948486 12.101929 47.024536 -2.9763794 53.572266 -25.0c6.5476074 -22.02362 14.880493 -35.713013 -14.286133 -107.14172c-29.166626 -71.428696 25.595337 -266.66843 -160.71387 -321.43045c-186.30933 -54.76203 -786.6291 -48.778217 -957.1418 -7.141732c-170.5127 41.636482 -100.12073 210.91731 -65.93439 256.96063z" fill-rule="evenodd"/></g></svg>